<svg xmlns="http://www.w3.org/2000/svg" viewBox="0 0 320.7 512"><path d="M32.9 480.8c9.6 7.1 20.8 13 33.4 17.9 12.6 4.8 25.1 8.3 37.5 10.3 12.4 2 24.7 3.1 36.8 3.1 55 0 98-13.4 129.2-40.3 28.7-25 43.1-53.9 43.1-86.8 0-11.7-1.7-22.6-5.1-32.8-3.4-10.2-7.8-18.9-13.2-26.2-5.4-7.3-11.4-14-18-20.3-6.6-6.3-13.1-11.9-19.7-17.1-6.6-5.1-12.6-10-18-14.8-5.4-4.7-9.8-9.6-13.2-14.8-3.4-5.1-5.1-10.4-5.1-15.7 0-7.4 2.4-14.3 7.1-20.8 4.7-6.5 10.5-12.7 17.2-18.8 6.8-6 13.5-12.7 20.3-19.8 6.8-7.2 12.5-16.7 17.2-28.5 4.7-11.8 7.1-25.3 7.1-40.5 0-18-4-35.4-12-52-6.2-13-14.5-23.7-24.7-32.1-4.8-4-4.1-6.6 2.2-6.6h19c6.2 0 15.6-2.6 21-5.7l22-12.8c5.4-3.1 4.7-5.7-1.5-5.7H192.3c-19.1 0-38.3 2.1-57.5 6.2-28.5 6.4-52.5 20.9-72 43.5-19.5 22.7-29.2 48.4-29.2 77.1 0 30.4 10.9 55.6 32.8 75.7 21.8 20.1 48 30.2 78.6 30.2 3.3 0 6.9-.1 10.8-.4 6-.5 10.4.4 9.8 2.2-.3 1-.7 2.1-1.2 3.3-1 2.8-1.8 5-2.5 6.6-.6 1.6-1.1 3.6-1.5 6-.4 2.4-.6 4.8-.6 7.2 0 11.1 4.4 23.3 13.1 36.7 3.4 5.2 1.5 9.3-4.7 9.6-11.7.7-23.4 1.9-34.9 3.7-15.2 2.4-31.1 6.1-47.7 11.1S54.1 331 41 340.5c-13.1 9.5-23 20.9-29.5 34C3.8 389.7 0 403.5 0 416c0 13.8 3.1 26.2 9.2 37.4 6.2 11.2 14.1 20.3 23.7 27.4zm113.3-274.6c-9.4-5.3-17.4-12.3-24-20.8-6.6-8.5-12.3-18.1-17.2-28.8-4.9-10.7-8.6-21.3-10.9-32-2.4-10.7-3.5-20.8-3.5-30.5 0-19.7 5.2-36.6 15.7-50.8 10.5-14.2 25.2-21.2 44.3-21.2 13.5 0 25.8 4.2 36.8 12.6 11 8.4 19.6 19.1 25.8 32 6.3 12.9 11.1 26.3 14.5 40.2 3.4 13.8 5.1 26.9 5.1 39.2 0 15.6-2.6 28.8-7.7 39.7-2.7 5.6-8.6 14-13.4 17.9-8.7 7-20.6 10.5-35.5 10.5-10.7 0-20.6-2.7-30-8zm-81 162.7c5.5-9.6 12.6-17.3 21.2-23.1 8.6-5.7 18.7-10.5 30.2-14.2 11.5-3.7 22.6-6.3 33.2-7.7 10.7-1.4 21.5-2.2 32.6-2.2 2.9 0 5.4 0 7.7.1 4.3.1 9.8 1.9 12.4 3.7 1.3.9 2.9 2 4.7 3.2 5 3.5 8.4 5.8 10.2 7.1 1.7 1.2 4.9 3.6 9.5 7.1 4.6 3.5 7.9 6.1 9.8 7.9 1.9 1.7 4.8 4.4 8.5 7.8 3.7 3.5 6.4 6.5 8.2 9.1 1.7 2.6 3.9 5.7 6.5 9.4s4.4 7.2 5.4 10.6c1 3.4 2 7.1 2.9 11.1.9 4 1.4 8.2 1.4 12.5 0 12.9-2.8 24.2-8.5 33.8-5.6 9.6-13.3 17.2-22.9 22.6-9.6 5.4-19.9 9.4-30.9 12-11 2.6-22.5 3.8-34.6 3.8-13.1 0-26.2-1.5-39.1-4.6-12.9-3.1-25.3-7.7-37.1-14S75.2 450 67.9 439.1c-7.3-11-10.9-23.4-10.9-37.4-.1-12.2 2.7-23.1 8.2-32.8z" fill="#fff"/></svg>