<svg xmlns="http://www.w3.org/2000/svg" viewBox="0 0 24.332 24.332" width="512" height="512"><path d="M3.607 17.11A3.61 3.61 0 000 20.717c0 1.984 1.618 3.604 3.607 3.604s3.607-1.619 3.607-3.604a3.61 3.61 0 00-3.607-3.607z" data-original="#000000" class="active-path" data-old_color="#000000" fill="#FFF"/><path d="M.375 7.951A.377.377 0 000 8.328v4.578c0 .206.169.374.375.374 5.879 0 10.665 4.784 10.665 10.665 0 .205.166.375.375.375h4.597c.209 0 .377-.17.377-.375l-.018-.117C16.305 15.064 9.152 7.951.375 7.951z" data-original="#000000" class="active-path" data-old_color="#000000" fill="#FFF"/><path d="M24.311 23.828C24.246 10.681 13.531.01.375.01A.377.377 0 000 .387v4.711c0 .207.169.375.375.375 10.186 0 18.472 8.287 18.472 18.473 0 .205.168.375.373.375h4.733c.205 0 .379-.17.379-.375l-.021-.118z" data-original="#000000" class="active-path" data-old_color="#000000" fill="#FFF"/></svg>