<svg xmlns="http://www.w3.org/2000/svg" viewBox="0 0 8.4 8.4"><path d="M4.7 0c-.9 0-1.9.4-2.6 1.1C.7 2.5.7 4.9 2.1 6.3c1.4 1.4 3.8 1.4 5.2 0s1.4-3.8 0-5.2C6.6.4 5.7 0 4.7 0zm-.1.6c.8 0 1.7.3 2.3.9 1.2 1.2 1.2 3.2 0 4.4-1.2 1.2-3.3 1.2-4.5 0-1.2-1.2-1.2-3.2 0-4.4C3 .9 3.8.6 4.6.6zM.2 7.1c-.3.3-.3.8 0 1.1s.8.3 1.1 0L2.5 7c-.2-.2-.4-.3-.6-.5s-.4-.4-.5-.6L.2 7.1z" fill="#fff"/><text transform="translate(-1.95 25.75)" font-family="Arial-BoldMT" font-size="5">Created by Nawicon</text><text transform="translate(-1.95 30.75)" font-family="Arial-BoldMT" font-size="5">from the Noun Project</text></svg>