<svg xmlns="http://www.w3.org/2000/svg" viewBox="0 0 512 181.6"><path d="M341.5.5l167.9 47c1.7.5 2.7 1.2 2.7 2s-1 1.5-2.7 2l-167.9 47c-1.2.3-2.7.5-4.2.5-1.4 0-2.9-.2-4.1-.5-2.5-.7-3.4-1.9-2.2-2.9l33.8-31.1H6.8C3.1 64.5 0 63.3 0 62V37c0-1.4 3.1-2.5 6.8-2.5h357.8L330.9 3.4c-1.1-1-.2-2.2 2.2-2.9 2.5-.7 5.9-.7 8.4 0zm-162.6 84c-1.2-.3-2.7-.5-4.1-.5-1.5 0-2.9.2-4.2.5L2.7 130.8c-1.7.5-2.7 1.2-2.7 2s1 1.5 2.7 2l167.9 46.3c2.4.7 5.8.7 8.3 0 2.4-.7 3.4-1.8 2.2-2.9l-33.8-30.7h357.8c3.8 0 6.8-1.1 6.8-2.5v-24.6c0-1.4-3.1-2.5-6.8-2.5H147.3l33.8-30.7c1.1-.9.2-2-2.2-2.7z" fill="#b9b9b9"/></svg>