<svg xmlns="http://www.w3.org/2000/svg" viewBox="0 0 15.124 15.124" width="512" height="512"><path d="M12.1 3.974c-.009-.004-.019-.015-.028-.024a2.738 2.738 0 00-1.994-.716l-.023-.051c.004-.005.009-.005.014-.005.693-.152.928-.131 1.05-.3.042-.137-.01-.212-.16-.231-.35.043-.67.113-.958.222.364-.222.505-.377.425-.458-.319-.195-.767.15-.805.127a3.221 3.221 0 00-.509.41c-.307.325-.376.452-.564.725l-.009.023c-.486.75-1.002 1.503-1.205 2.273l-.075.057-.014.014c-.292-.349-1.11-1.449-1.779-1.732-.733-.36-2.5-.684-3.249-.914-.004.797.405 1.433 1.222 1.895v.014c-.898-.137-.78-.048-.835.118.052.74.604 1.25 1.65 1.532l-.005.014c-.41-.023-1.142-.083-1.014.397.344.641.952.947 1.834.924a1.247 1.247 0 00-.401.283c-.16.16-.212.35-.16.565.188.325.528.476 1.028.453l.028.032a.192.192 0 01-.014.015c-.863.849-1.905 1.23-3.127 1.15l-.019.01C1.659 10.791.862 10.451 0 9.773c.867 1.188 2.018 2.046 3.442 2.584 1.631.514 3.263.552 4.889.112h.028c1.58-.434 2.919-1.325 4.021-2.672.51-.708.83-1.382.958-2.028.824.028 1.419-.198 1.786-.679l-.009-.015c-.273.094-.812.066-1.608-.089v-.085c0-.004 0-.004.005 0 .872-.094 1.387-.362 1.552-.806a2.555 2.555 0 01-1.802.02c-.107-.784-.492-1.496-1.162-2.141z" data-original="#030104" class="active-path" data-old_color="#030104" fill="#FFF"/></svg>