<svg version="1.1" id="Layer_1" xmlns="http://www.w3.org/2000/svg" x="0" y="0" viewBox="0 0 80.8 90" xml:space="preserve"><style/><path d="M34.4 90H5.6c-1.1 0-2-.9-2-2V44h30.8v46zm12-46v46h28.8c1.1 0 2-.9 2-2V44H46.4zm34.4-21.4v16.1c0 1.1-.9 2-2 2H46.4V21h-12v19.7H2c-1.1 0-2-.9-2-2V22.6c0-1.1.9-2 2-2h21.6c-4.3-.5-8.7-1.8-11.1-4.9-1.2-1.6-2.4-4.3-1.3-8.4.8-2.9 2.6-5.1 5.3-6.3 5-2.2 11.6-.6 16.2 1.7 4.2 2.1 7 5.3 8.9 8.2 1.8-2.2 4.2-4.8 7.2-7C52.9.7 59.2-.4 64 1.2c3.6 1.2 6.1 3.7 7 7.2 1.1 3.9-.1 6.5-1.2 8-2.1 2.7-5.7 3.8-9.6 4.3h18.7c1 0 1.9.9 1.9 1.9zM37 15.1c-1.4-2.4-3.6-5.3-7-7C27.3 6.7 24.3 6 21.9 6c-1.2 0-2.2.2-3 .5-1 .5-1.7 1.2-2 2.4-.5 1.9-.1 2.7.3 3.2C18 13.2 20.8 15 30 15h7v.1zm8.8 0H52c3.9 0 11.1 0 12.9-2.3.2-.2.7-.9.2-2.8-.4-1.5-1.4-2.5-3.1-3.1-2.9-1-7.1-.2-9.7 1.8-2.7 2-4.8 4.4-6.5 6.4z" fill="#fff" stroke="none" stroke-miterlimit="10"/><path d="M78.9 17.7H68.4c.5-.4.9-.8 1.3-1.3 1.1-1.5 2.3-4.1 1.2-8-.9-3.4-3.4-6-7-7.2C59.1-.4 52.8.7 48.7 3.9c-3 2.3-5.4 4.8-7.2 7.1-1.9-2.9-4.7-6.2-8.9-8.2-4.6-2.3-11.2-4-16.2-1.7-2.7 1.2-4.5 3.4-5.3 6.3-1.1 4.1.1 6.8 1.3 8.4.6.8 1.3 1.4 2.1 2H1.9c-2.7 0-5 2.2-5 5V39c0 2.3 1.6 4.2 3.7 4.8V85c0 2.7 2.2 5 5 5h69.7c2.7 0 5-2.2 5-5V43.7c2.1-.6 3.7-2.5 3.7-4.8V22.7c-.1-2.7-2.3-5-5.1-5zm-1 20.2H48.4V23.7h29.5v14.2zm-41.5 0V23.7h8v14.2h-8zm8 6V84h-8V43.9h8zm8-35.3c2.6-2 6.7-2.8 9.7-1.8 1.7.6 2.7 1.6 3.1 3.1.5 1.9 0 2.6-.2 2.8C63.2 15 56 15 52.1 15h-6.2c1.6-1.9 3.8-4.3 6.5-6.4zm-35.5.3c.3-1.2.9-1.9 2-2.4.8-.4 1.8-.5 3-.5 2.4 0 5.4.7 8.1 2.1 3.4 1.7 5.7 4.6 7.1 7H30c-9.2 0-11.9-1.8-12.8-2.9-.4-.5-.8-1.4-.3-3.3zm-14 14.8h29.5v14.2H2.9V23.7zm3.6 20.2h25.9V84H6.5V43.9zM74.3 84H48.4V43.9h25.9V84z" fill="none"/></svg>